# xmcd
#
# Track frame offsets:
#	150
#	60798
#	103753
#	137150
#	197600
#	229723
#
# Disc length: 3582 seconds
#
# Revision: 0
# Processed by: cddbd v1.4PL0 Copyright (c) Steve Scherf et al.
# Submitted via: AudioConverter v4.05 Copyright (c) Dennis Rebentrost
#
DISCID=470dfc06
DTITLE=Mozart - Piano Concerto No20 No27
DYEAR=1900
DGENRE=
TTITLE0=No.20 in D.K. 466 1st-Allegro
TTITLE1=No.20 in D.K. 466 2nd-Romanze
TTITLE2=No.20 in D.K. 466 3rd-Rondo
TTITLE3=No.27 in B flat major K.595 1st-Allegro
TTITLE4=No.27 in B flat major K.595 2nd-Romanze
TTITLE5=No.27 in B flat major K.595 3rd-Rondo
EXTD=
EXTT0=
EXTT1=
EXTT2=
EXTT3=
EXTT4=
EXTT5=
PLAYORDER=
